<svg width="82" height="82" viewBox="0 0 82 82" fill="none" xmlns="http://www.w3.org/2000/svg">
<path d="M44.81 20.37H36.66V36.66H20.37V44.85H36.66V61.15H44.81V44.85H61.11V36.7H44.81V20.37ZM40.74 0C32.6824 0 24.8058 2.38937 18.1061 6.86594C11.4064 11.3425 6.18469 17.7052 3.10118 25.1495C0.0176661 32.5937 -0.789141 40.7852 0.782821 48.688C2.35478 56.5908 6.23489 63.85 11.9325 69.5475C17.6301 75.2451 24.8893 79.1252 32.792 80.6972C40.6948 82.2692 48.8863 81.4624 56.3306 78.3788C63.7748 75.2953 70.1375 70.0736 74.6141 63.3739C79.0907 56.6743 81.48 48.7976 81.48 40.74C81.4774 29.9359 77.1843 19.5751 69.5446 11.9354C61.905 4.29574 51.5441 0.00265099 40.74 0ZM40.74 73.33C34.2939 73.332 27.992 71.4223 22.6313 67.8425C17.2706 64.2626 13.0919 59.1735 10.6237 53.2186C8.15548 47.2637 7.50864 40.7107 8.765 34.3882C10.0214 28.0657 13.1245 22.2577 17.6819 17.6989C22.2393 13.1402 28.0462 10.0352 34.3684 8.77695C40.6905 7.51864 47.2437 8.16346 53.1994 10.6298C59.155 13.0962 64.2454 17.2733 67.8269 22.6329C71.4084 27.9925 73.32 34.2939 73.32 40.74C73.3094 49.3784 69.8739 57.6602 63.7665 63.7694C57.6591 69.8786 49.3785 73.3168 40.74 73.33Z" fill="#232323"/>
</svg>
