<svg width="73" height="81" viewBox="0 0 73 81" fill="none" xmlns="http://www.w3.org/2000/svg">
<g clip-path="url(#clip0_406_134)">
<path d="M64.8001 8.10004H60.7501V0H52.6501V8.10004H20.2501V0H12.1501V8.10004H8.10014C7.03831 8.10002 5.98695 8.30979 5.00645 8.71735C4.02595 9.1249 3.13563 9.72217 2.38667 10.4749C1.6377 11.2275 1.04484 12.1208 0.642143 13.1033C0.23945 14.0858 0.0348687 15.1382 0.0401383 16.2V72.9C0.0388222 73.9641 0.247433 75.018 0.65403 76.0013C1.06063 76.9846 1.65723 77.8781 2.40965 78.6305C3.16206 79.3829 4.05551 79.9795 5.03884 80.3861C6.02217 80.7927 7.07607 81.0013 8.14014 81H64.8401C66.9868 80.9947 69.044 80.1397 70.5619 78.6218C72.0798 77.1039 72.9349 75.0467 72.9401 72.9V16.2C72.9322 14.0473 72.0708 11.9856 70.5448 10.4671C69.0188 8.94863 66.9529 8.09737 64.8001 8.10004ZM64.8001 72.9H8.10014V32.4H64.8001V72.9ZM64.8001 24.3H8.10014V16.2H64.8001V24.3ZM36.4301 44.55H56.6801V64.8H36.4301V44.55Z" fill="black"/>
</g>
<defs>
<clipPath id="clip0_406_134">
<rect width="72.9" height="81" fill="white"/>
</clipPath>
</defs>
</svg>
