<svg width="14" height="56" viewBox="0 0 14 56" fill="none" xmlns="http://www.w3.org/2000/svg">
<g clip-path="url(#clip0_406_128)">
<path d="M6.98975 14C8.37422 14 9.72761 13.5895 10.8788 12.8203C12.0299 12.0511 12.9271 10.9579 13.4569 9.67882C13.9867 8.39974 14.1254 6.99226 13.8553 5.63439C13.5852 4.27652 12.9185 3.02925 11.9395 2.05028C10.9605 1.07132 9.71324 0.404609 8.35538 0.134513C6.99751 -0.135584 5.59006 0.00301462 4.31097 0.532828C3.03189 1.06264 1.93863 1.95987 1.16946 3.11101C0.400294 4.26216 -0.0102539 5.61552 -0.0102539 6.99999C-0.0102539 8.85651 0.727254 10.637 2.04001 11.9498C3.35276 13.2625 5.13323 14 6.98975 14ZM6.98975 21C5.60528 21 4.25191 21.4106 3.10077 22.1797C1.94963 22.9489 1.05243 24.0421 0.522614 25.3212C-0.00719988 26.6003 -0.145829 28.0078 0.124268 29.3657C0.394364 30.7235 1.06104 31.9708 2.04001 32.9498C3.01898 33.9287 4.26625 34.5954 5.62411 34.8655C6.98198 35.1356 8.38947 34.997 9.66855 34.4672C10.9476 33.9373 12.0409 33.0402 12.8101 31.889C13.5792 30.7379 13.9897 29.3845 13.9897 28C13.9897 26.1435 13.2523 24.363 11.9395 23.0503C10.6268 21.7375 8.84626 21 6.98975 21ZM6.98975 42C5.60528 42 4.25191 42.4106 3.10077 43.1797C1.94963 43.9489 1.05243 45.0421 0.522614 46.3212C-0.00719988 47.6003 -0.145829 49.0078 0.124268 50.3657C0.394364 51.7235 1.06104 52.9708 2.04001 53.9498C3.01898 54.9287 4.26625 55.5954 5.62411 55.8655C6.98198 56.1356 8.38947 55.997 9.66855 55.4672C10.9476 54.9373 12.0409 54.0402 12.8101 52.889C13.5792 51.7379 13.9897 50.3845 13.9897 49C13.9897 47.1435 13.2523 45.363 11.9395 44.0503C10.6268 42.7375 8.84626 42 6.98975 42Z" fill="black"/>
</g>
<defs>
<clipPath id="clip0_406_128">
<rect width="14" height="55.99" fill="white"/>
</clipPath>
</defs>
</svg>
