<svg width="73" height="81" viewBox="0 0 73 81" fill="none" xmlns="http://www.w3.org/2000/svg">
<g clip-path="url(#clip0_406_132)">
<path d="M64.8 8.10004H60.75V0H52.65V8.10004H20.25V0H12.15V8.10004H8.10001C5.95419 8.10794 3.8985 8.96387 2.38116 10.4812C0.86383 11.9985 0.00790366 14.0542 0 16.2V72.9C0.00528079 75.0467 0.860364 77.1039 2.37827 78.6218C3.89617 80.1397 5.95338 80.9947 8.10001 81H64.8C66.9466 80.9947 69.0039 80.1397 70.5218 78.6218C72.0397 77.1039 72.8947 75.0467 72.9 72.9V16.2C72.8947 14.0534 72.0397 11.9962 70.5218 10.4783C69.0039 8.96037 66.9466 8.10532 64.8 8.10004ZM64.8 72.9H8.10001V32.4H64.8V72.9ZM8.10001 24.27V16.17H64.8V24.27H8.10001ZM30.62 66.63L54.62 42.63L50.33 38.33L30.61 58.06L22.06 49.51L17.77 53.8L30.62 66.63Z" fill="black"/>
</g>
<defs>
<clipPath id="clip0_406_132">
<rect width="72.9" height="81" fill="white"/>
</clipPath>
</defs>
</svg>
